<svg xmlns="http://www.w3.org/2000/svg" viewBox="0 0 699.539 564.563"><path fill="none" d="M358.786 143.617l-.006.066c-.193 1.66-.386 3.3-.579 4.921.212-1.662.431-3.34.668-5.039zM360.172 131.278c-1.7-.1-3.492-.194-4.992-.394 1.5.2 3.2.3 4.9.4.345.018.69.028 1.035.04-.315-.014-.627-.024-.943-.046zM324.787 52.073l-.007.011a193.625 193.625 0 0 0 3.3 30.4c.5 2.707 1.1 5.417 1.768 8.16a193.14 193.14 0 0 1-1.768-8.361 194.84 194.84 0 0 1-3.293-30.21zM270.78 309.884h-10.895c7.087 3.209 14.226 6.445 21.257 9.638q-1.114-4.921-2.23-9.725a7.945 7.945 0 0 1-1.132.087zM450.574 488.227l-10.295-77.643 10.295 77.66v-.017zM437.859 404.538a87.937 87.937 0 0 1 2.42 6.046 80.788 80.788 0 0 0-2.42-6.046zM325.165 543.016l.001.002-13.087-61.334 13.086 61.332z"/><path fill="none" d="M438.479 411.784c-37 31.7-81.3 52.9-126.4 69.9 45-16.9 89.4-38.2 126.4-69.9zM341.98 128.084s-4.742-10.287-10.6-31.485c5.795 21.223 10.6 31.485 10.6 31.485zM437.222 403.156c.091.2.186.4.276.594q-.136-.297-.276-.594zM418.08 71.384v-.19c-.09 7.924-6.532 18.381-11.035 24.706 4.555-6.282 10.949-16.59 11.035-24.516z"/><path fill="#e8b6e3" d="M358.88 143.484a102.746 102.746 0 0 0 17.4-13.5 54.625 54.625 0 0 1-15.165 1.343c-.345-.012-.69-.022-1.035-.04-.2 2-.3 3.9-.6 6-.3 2.079-.5 4.158-.694 6.334l.083-.052zM281.142 319.522c-7.031-3.193-14.17-6.429-21.257-9.638h-84.98c23.459 16.449 73.348 49.018 116.76 61.322-1.526-11.733-4-22.5-6.485-33.724-1.346-6-2.692-12.021-4.038-17.96zM122.879 291.384l-8.491-49.447-.109-.053 8.5 49.5 24.99 5.632-8.937-18.213-15.953 12.581z"/><path fill="none" d="M132.3 547.594l.07-.023-.019-.025-.061.032z"/><g fill="#340731"><path d="M291.093 212.109l-2.888 30.579c24.379-37.457 34.648-62.407 35.508-64.54a1.566 1.566 0 0 0 .08-.238c-16.8 3.799-30.2 17.199-32.7 34.199zM465.927 275.074c-6.875-16.319-11.468-29.779-14.15-41.29l-16.589 165.21q1.073 2.074 2.034 4.162l.276.594c.119.263.245.525.361.788a80.788 80.788 0 0 1 2.42 6.046l10.3 77.643v.057l.1 3.7a63.1 63.1 0 0 1-.986 12.458l.127-.3c21.678-79.339 30.035-146.58 32.951-194.276-6.523-12.335-12.483-24.419-16.844-34.792z"/></g><path fill="#2e3033" d="M450.58 488.283v-.04l-10.3-77.66c0 .035-.721.4-1.8 1.2-37 31.7-81.4 53-126.4 69.9l13.087 61.334c.006.014.007.029.014.042 1.586 6.146-.372 11.5-6.739 14.421l70.639-1.4a62.814 62.814 0 0 0 61.6-64.1z"/><g fill="#1a1c1d"><path d="M293.762 403.067l.016-.01-.1-9.373-.4-.1c-.035-.011-.071-.023-.107-.033-47.9-14.9-118.493-36.667-118.593-36.767a42.867 42.867 0 0 0-53.5 28.7 48.957 48.957 0 0 0-1.3 5.5c-2.7 16.5 9.6 33.2 20.9 46.4 7.372 8.567 22.086 26.262 34.654 41.029l.046-.029 4-2.5c21.9-13.9 74.8-47.7 114.2-72.7zM312.079 481.684c-31.768 11.988-63.934 21.88-94.107 31.869q1.912-.145 4.108-.292a176.985 176.985 0 0 1 30 1.4c34.4 4.4 69.8 17.2 72.9 27.8.092.186.1.371.185.556z"/></g><g fill="#e0e2e5"><path d="M132.3 547.594l-.01-.016h-.011c-.055.055-5.93-9.843-11.217-18.779-4.34-7.334-8.283-14.021-8.283-14.021l.14-.073L0 524.694s14.4 34.1 44.7 34.1h67.9l20-11.3-.23.077zM325.18 543.06c-.007-.013-.008-.028-.014-.042-.08-.185-.093-.37-.185-.556-3.1-10.6-38.5-23.4-72.9-27.8a176.985 176.985 0 0 0-30-1.4q-2.2.145-4.108.292l-.091.007c-5.647.4-10.383.973-14.273 1.579-9.613 1.5-14.027 3.221-14.027 3.221s.4 1.7 1.3 4.4a107.006 107.006 0 0 0 4.1 10.7c4.8 10.4 13 22.9 25.7 25.8l88.1.3a25.648 25.648 0 0 0 9.5-2c.056-.025.106-.054.161-.079 6.365-2.919 8.323-8.276 6.737-14.422z"/></g><path fill="#551151" d="M561.075 337.156l-61.248-137.982c-10.594-17.89-24.784-20.2-42.569-20.5-1.584-.56-33.878-11.193-33.878-11.193l-5.08-12.325a53.056 53.056 0 0 0 9.176-96.472 65.069 65.069 0 0 0-2.3-11.5c-7.4-32.7-25.3-52.1-68.4-46.1-17.7 2.4-26.9 12.7-31.6 24.6l-.2.3c-10.7 7.2-20.7 23.5-11.4 41a53.05 53.05 0 0 0 38.6 89.4c.391 0 .781-.02 1.172-.029l-4.072 11.127-21.4 8.8-4.1 1.7-.067.166c-.86 2.133-11.129 27.083-35.508 64.54l-.125.194c-.3.4-.5.8-.8 1.2-6.653 8.736-11.09 17.679-12.28 29.643l10.48 21.359c3.015 6.218-.542 13.852-6.568 14.713q1.114 4.806 2.23 9.725c1.346 5.939 2.692 11.96 4.038 17.96 2.48 11.225 4.959 21.991 6.485 33.724a176.561 176.561 0 0 1 1.507 22.345c.036.01.072.022.107.033l.4.1.1 9.373c23.906-15.238 42.812-27.079 46.6-29.173 44.6-24.9 77.4-8.3 94.5 24.5.1.189.189.38.288.569l.02.041 16.589-165.21c2.682 11.511 7.275 24.971 14.15 41.29 4.361 10.373 10.321 22.457 16.845 34.8 18.76 35.484 42.194 73.083 45.755 78.2a68.824 68.824 0 0 1-.7-7.7 59.778 59.778 0 0 1 .169-7.587c1.474-17.06 10.956-30.101 33.084-35.631zM341.98 128.084s-4.805-10.262-10.6-31.485c-.234-.856-.468-1.724-.7-2.615q-.431-1.681-.832-3.34a149.372 149.372 0 0 1-1.768-8.16 193.625 193.625 0 0 1-3.3-30.4l.007-.011 2.093-3.189c8.9 24.5 47.9 29.8 66.9 31 4.6-8 14.7-23.4 21.9-15.5a9.787 9.787 0 0 1 2.4 6.81v.19c-.086 7.926-6.483 18.234-11.036 24.516a101.612 101.612 0 0 1-2.164 2.884l3.5 19.2 6.193 34.2h-56.8q.215-1.77.429-3.578c.193-1.624.386-3.261.579-4.921l.006-.066c.2-2.176.4-4.255.694-6.334.3-2.1.4-4 .6-6-1.7-.1-3.4-.2-4.9-.4a73.8 73.8 0 0 1-13.201-2.801z"/><path fill="#2e3033" d="M285.48 295.084L275 273.725l-23.621-48.141a8.731 8.731 0 0 0-7.7-5.1h-7a8.731 8.731 0 0 1 7.7 5.1l30.659 62.486 3.442 7.014a11.056 11.056 0 0 1-.535 10.544 8.418 8.418 0 0 1-7.165 4.256h7a7.945 7.945 0 0 0 1.132-.087c6.026-.861 9.588-8.497 6.568-14.713z"/><g fill="#43464a"><path d="M437.859 404.538a61.787 61.787 0 0 0-.361-.788c-.09-.2-.185-.395-.276-.594q-.966-2.09-2.034-4.162l-.02-.041c-.1-.189-.189-.38-.288-.569-17.1-32.8-49.9-49.4-94.5-24.5-3.79 2.094-22.7 13.935-46.6 29.173l-.016.01-.183.116c-39.4 25-92.3 58.8-114.2 72.7l-4 2.5-.046.029c-32.389 20.469-60.32 35.2-62.414 36.3l-.14.073s3.943 6.687 8.283 14.021c5.287 8.936 11.162 18.834 11.217 18.779h.011l.061-.032c17.383-9.284 37.157-17.273 58.428-24.863-.8-2.7-1.3-4.4-1.3-4.4s4.472-1.674 14.128-3.144c3.89-.606 8.626-1.175 14.273-1.579l.091-.007c30.173-9.989 62.339-19.881 94.107-31.869 45.1-17 89.4-38.2 126.4-69.9 1.079-.8 1.8-1.165 1.8-1.2a87.219 87.219 0 0 0-2.421-6.053zM120.828 242.107l39.751 1.377c.785 5.732-.738 13.056-4.123 19.091a23.63 23.63 0 0 1-8.977 9.409l-8.647 6.819 8.937 18.213 3.811 7.767a8.736 8.736 0 0 0 7.7 5.1h111.5a8.418 8.418 0 0 0 7.165-4.256 11.056 11.056 0 0 0 .535-10.544l-3.442-7.014-30.659-62.486a8.731 8.731 0 0 0-7.7-5.1H125.18c-6.7 0-10.9 8.1-7.7 14.8z"/></g><g fill="#f0dcee"><path d="M418.079 71.194a9.787 9.787 0 0 0-2.4-6.81c-7.2-7.9-17.3 7.5-21.9 15.5-19-1.2-58-6.5-66.9-31l-2.093 3.189a194.84 194.84 0 0 0 3.293 30.21c.511 2.7 1.1 5.52 1.768 8.361q.4 1.66.832 3.34c.237.891.471 1.759.7 2.615 5.853 21.2 10.6 31.485 10.6 31.485a73.8 73.8 0 0 0 13.2 2.8c1.5.2 3.293.293 4.992.394.316.023.629.032.943.049a54.625 54.625 0 0 0 15.165-1.343 102.746 102.746 0 0 1-17.4 13.5l-.011.081a435.2 435.2 0 0 0-.668 5.039q-.215 1.807-.429 3.578h56.8l-6.193-34.2-3.5-19.2c.635-.813 1.375-1.8 2.164-2.884 4.505-6.323 10.947-16.78 11.037-24.704zM699.538 534.039s-11.3-12.5-41.6-23.5l-35.4-7.8c-13.9-38.1-60.5-165.8-61.4-165.6l-.063.017c-22.128 5.53-31.61 18.571-33.079 35.631a59.956 59.956 0 0 0-.158 7.452 68.824 68.824 0 0 0 .7 7.7c5.5 39.3 39.8 91.8 62.4 127.5a27.015 27.015 0 0 0 5.6 17.4 22.908 22.908 0 0 0 10.673 8.2l.169.142 41 15.1 7.9-6-6.992-5.25 27.651 2.805a20.879 20.879 0 0 0 19-8.7l3.6-5.1zM120.828 242.107l-6.449-.223.009.053 8.491 49.447 15.953-12.584 8.647-6.819a23.63 23.63 0 0 0 8.977-9.409c3.385-6.035 4.908-13.359 4.123-19.091z"/></g></svg>