<svg xmlns="http://www.w3.org/2000/svg" viewBox="0 0 1600 900"><g data-name="Ebene 2"><path fill="none" d="M0 0h1600v900H0z"/><path fill="#d0d4d8" d="M1600 503.157c-99.327-16.534-212.845-2.55-336.584 68.208-191.537 109.526-326.797-129.906-560.429 280.291H1600z"/><path fill="#d0d4d8" d="M0 861.712h1501.768s-76.2-64.976-200.027-64.976c-105.38-1.109-216.34 22.8-216.34 22.8-48.36-38.843-350.675-261.71-764.736-124.325-116.134 38.533-212.06 4.36-320.665 20.702z"/><path fill="#e0e2e5" d="M1600 786.007c-173.811-107.552-299.579-14.041-464.586-73.273-430.457-154.52-717.17 45.155-767.445 88.843 0 0-141.627-2.098-251.181-.85-45.403 0-84.798 12.355-116.788 28.342V900h1600z"/></g></svg>